<svg width="484" height="335" viewBox="0 0 484 335" fill="none" xmlns="http://www.w3.org/2000/svg">
<path d="M117.856 98.1936V98.1939L120.579 95.6803L248.284 93.1426L374.537 94.6549C374.537 153.653 377.498 211.138 377.498 270.136C291.355 270.136 205.212 270.136 119.069 270.137C119.069 211.139 117.453 158.592 117.453 99.5935L124.003 93.3225L119.216 97.4341L117.856 98.1936Z" fill="#C55339"/>
<path d="M246.143 97.7075L309.742 97.7077L373.341 97.7078V267.488C330.941 267.488 288.542 267.488 246.143 267.488C246.143 210.895 246.143 154.301 246.143 97.7075Z" fill="#2185C0"/>
<path d="M362.332 277.563L380.252 277.563L398.173 277.563C398.173 281.158 398.173 284.753 398.173 288.348C386.226 288.348 374.279 288.348 362.332 288.348C362.332 284.753 362.332 281.158 362.332 277.563Z" fill="#A29797"/>
<path d="M199.782 271.573L251.965 271.573H304.148C304.148 276.266 304.148 280.959 304.148 285.652C269.359 285.652 234.57 285.652 199.782 285.652C199.782 280.959 199.782 276.266 199.782 271.573Z" fill="#A29797"/>
<path d="M92.426 275.893L113.723 275.893L135.02 275.894C135.02 279.35 135.02 282.806 135.02 286.263C120.822 286.263 106.624 286.263 92.426 286.263C92.426 282.806 92.426 279.35 92.426 275.893Z" fill="#A29797"/>
<path d="M125.071 92.0383C120.097 92.0383 116.092 96.0362 116.092 101.002L116.092 264.972C116.092 269.694 115.439 273.541 119.653 273.907L90.1448 273.907C86.6526 273.907 88.4386 276.683 88.4386 280.132V284.282C88.4386 287.73 91.2499 290.507 94.742 290.507L400.458 290.508C403.95 290.507 406.762 287.731 406.762 284.282V280.132C406.762 276.683 408.548 273.907 405.056 273.907H375.547C379.761 273.541 379.108 269.694 379.108 264.972L379.108 101.002C379.108 96.0364 375.104 92.0383 370.13 92.0383L125.07 92.0385L125.071 92.0383ZM202.643 94.2121C203.92 94.2121 204.954 95.2453 204.954 96.5195C204.954 97.7938 203.92 98.8269 202.643 98.8269C201.367 98.8269 200.332 97.7939 200.332 96.5195C200.332 95.2453 201.367 94.2121 202.643 94.2121ZM124.852 101.019L370.349 101.019L370.349 264.953L124.852 264.953L124.852 101.019ZM207.69 273.936L287.511 273.936C287.392 275.672 286.209 277.027 284.755 277.027L210.446 277.027C208.993 277.027 207.809 275.672 207.69 273.936ZM369.759 278.846C371.639 278.846 373.163 280.351 373.163 282.208C373.163 284.064 371.639 285.569 369.759 285.569C367.88 285.569 366.356 284.064 366.356 282.208C366.356 280.351 367.88 278.846 369.759 278.846ZM380.495 278.846C382.375 278.846 383.899 280.351 383.899 282.208C383.899 284.064 382.375 285.569 380.495 285.569C378.615 285.569 377.091 284.064 377.091 282.208C377.091 280.351 378.615 278.846 380.495 278.846ZM391.231 278.846C393.11 278.846 394.634 280.351 394.634 282.208C394.634 284.064 393.11 285.569 391.231 285.569C389.351 285.569 387.827 284.064 387.827 282.208C387.827 280.351 389.351 278.846 391.231 278.846ZM102.023 281.072L119.883 281.073C120.756 281.073 121.459 281.579 121.459 282.208C121.459 282.836 120.756 283.343 119.883 283.343H102.023C101.15 283.343 100.447 282.836 100.447 282.208C100.447 281.579 101.15 281.072 102.023 281.072Z" fill="#1A1A1A"/>
<path d="M296.001 207.913L268.453 233.951L238.392 241.637L198.889 220.953C200.417 203.907 201.646 193.15 202.576 188.683C203.567 182.498 205.209 178.344 207.504 176.222C208.127 175.615 209.205 175.016 210.739 174.426L264.039 170.255L296.001 207.913Z" fill="#F4A173" fill-opacity="0.996078"/>
<path d="M241.37 157.821C242.595 157.358 243.912 157.287 245.2 157.158C247.446 156.951 249.75 157.146 251.878 157.939C254.615 158.97 257.539 159.226 260.376 159.824C263.466 160.537 266.557 161.249 269.66 161.902C273.294 162.601 276.87 163.568 280.459 164.467C283.248 164.995 286.086 164.438 288.831 163.904C290.141 163.635 291.346 163.028 292.518 162.392C292.779 162.937 292.837 163.548 292.989 164.127C293.214 165.038 293.367 165.969 293.639 166.868C294.398 168.887 295.192 170.894 295.824 172.96C296.325 174.534 296.905 176.085 297.244 177.709C297.771 180.126 298.611 182.452 299.284 184.827C300.556 190.548 301.816 196.272 303.088 201.993C303.116 202.224 303.251 202.465 303.186 202.697C302.426 203.109 301.774 203.695 301.261 204.399C300.646 205.26 299.785 205.878 299.039 206.607C298.137 207.47 297.184 208.276 296.181 209.014C295.533 209.493 295.002 210.255 294.178 210.405C293.585 209.951 293.121 209.346 292.585 208.829C290.96 207.136 289.36 205.424 287.761 203.707C287.038 202.956 286.36 202.154 285.563 201.479C283.699 199.87 281.516 198.729 279.447 197.431C275.983 195.202 272.667 192.748 269.321 190.343C265.148 187.359 260.894 184.498 256.657 181.611C254.774 180.35 252.955 178.992 251.045 177.775C248.854 176.38 246.55 175.1 244.042 174.416C242.471 173.993 240.811 173.832 239.205 174.123C237.572 174.439 235.974 174.924 234.424 175.53C228.918 177.674 224.139 181.307 218.769 183.743C216.737 184.681 214.646 185.484 212.531 186.201C211.912 186.351 211.268 186.203 210.659 186.073C210.058 185.911 209.393 185.767 208.962 185.271C208.61 184.901 208.244 184.538 207.967 184.104C207.626 183.567 207.645 182.901 207.621 182.288C207.619 181.896 207.568 181.47 207.785 181.123C208.144 180.503 208.679 180.017 209.215 179.56C210.168 178.774 211.197 178.092 212.238 177.435C213.175 176.835 214.159 176.29 214.963 175.501C217.849 172.702 219.021 168.573 221.907 165.774C222.961 164.779 224.325 164.217 225.693 163.842C228.974 162.93 232.277 162.044 235.417 160.691C237.429 159.795 239.297 158.579 241.37 157.821Z" fill="#F4C6AC"/>
<path d="M201.823 174.21C202.149 173.184 202.249 172.089 202.608 171.074C204.161 171.565 205.787 171.743 207.396 171.927C210.23 172.249 213.093 172.209 215.927 171.916C215.382 172.85 214.702 173.703 213.93 174.45C213.225 175.137 212.357 175.601 211.541 176.13C210.198 176.988 208.847 177.859 207.68 178.961C206.941 179.684 206.167 180.57 206.17 181.679C206.182 182.681 206.13 183.748 206.601 184.663C206.969 185.344 207.518 185.896 208.05 186.442C208.651 187.076 209.524 187.304 210.335 187.517C211.247 187.707 212.229 187.918 213.129 187.564C215.891 186.613 218.616 185.531 221.224 184.196C226.167 181.694 230.727 178.369 235.98 176.528C236.554 176.359 237.115 176.068 237.727 176.094C239.189 176.099 240.721 175.776 242.122 176.359C244.892 177.331 247.634 178.502 250 180.295C254.079 183.402 258.573 185.864 262.937 188.516C266.597 190.723 270.052 193.255 273.569 195.685C275.901 197.309 278.248 198.912 280.64 200.444C282.584 201.646 284.455 202.974 286.219 204.442C287.719 205.642 288.92 207.166 290.268 208.531C291.944 210.187 292.912 212.415 293.658 214.633C293.979 215.794 293.981 217.014 293.968 218.211C293.946 219.4 293.464 220.506 292.924 221.537C292.372 222.679 291.602 223.725 290.62 224.519C290.256 224.792 289.811 225.12 289.336 224.958C286.978 224.387 284.662 223.596 282.48 222.514C278.703 220.44 275.79 217.136 272.282 214.668C270.076 213.078 267.744 211.68 265.401 210.312C264.841 210.009 264.322 209.624 263.733 209.385C263.542 209.769 263.324 210.137 263.111 210.508C262.675 210.358 262.096 210.816 262.302 211.28C262.814 211.698 263.378 212.046 263.909 212.441C264.371 212.73 264.711 213.185 265.218 213.403C266.565 214.343 267.906 215.301 269.348 216.088C269.835 216.343 270.31 216.661 270.866 216.734C272.156 217.991 273.37 219.333 274.731 220.514C274.961 220.692 275.113 220.942 275.238 221.204C275.854 222.431 276.75 223.477 277.407 224.678C277.846 225.478 278.22 226.352 278.257 227.282C278.276 228.874 278.223 230.505 277.677 232.017C277.383 232.796 277.125 233.616 276.584 234.262C275.87 235.136 274.931 235.788 273.948 236.308C273.704 236.43 273.461 236.573 273.19 236.614C270.951 236.743 268.669 236.316 266.657 235.293C264.35 234.151 262.433 232.372 260.606 230.57C257.701 227.726 254.91 224.66 251.391 222.588C251.146 223.015 250.897 223.44 250.676 223.881C252.788 225.114 254.622 226.769 256.385 228.464C258.047 230.074 259.65 231.748 261.355 233.313C262.999 234.815 264.819 236.17 266.879 237.009C266.947 237.585 267.055 238.196 266.921 238.765C266.52 239.466 266.381 240.269 266.138 241.031C265.912 241.634 265.421 242.068 265.001 242.529C264.654 242.917 264.137 243.059 263.667 243.225C262.559 243.551 261.433 244.045 260.254 243.857C259.598 243.737 258.943 243.609 258.296 243.446C256.998 242.965 255.77 242.307 254.48 241.804C253.925 241.611 253.492 241.195 253.029 240.849C251.141 239.353 249.411 237.663 247.493 236.209C246.431 235.396 245.374 234.576 244.296 233.786C242.957 232.991 241.347 233.012 239.856 232.785C239.775 233.272 239.673 233.756 239.641 234.249C240.917 234.454 242.272 234.423 243.459 234.999C245.207 236.314 246.973 237.61 248.636 239.038C250.007 240.231 251.357 241.454 252.813 242.541C252.841 243.632 252.475 244.696 252.086 245.698C251.627 246.03 251.058 246.171 250.56 246.436C249.352 247.084 247.925 247.229 246.588 247.034C245.714 246.929 245.068 246.277 244.347 245.833C243.403 245.227 242.522 244.513 241.533 243.986C240.905 243.649 240.2 243.9 239.64 244.252C237.246 242.037 235.679 239.098 233.549 236.647C233.273 236.367 233.343 235.874 232.95 235.688C232.08 235.562 231.192 235.488 230.317 235.586C230.023 235.66 229.731 235.565 229.443 235.521C228.926 235.429 228.401 235.405 227.879 235.361C228.247 234.65 228.593 233.91 228.699 233.106C228.871 231.808 228.813 230.452 228.365 229.214C228.175 228.673 227.917 228.161 227.651 227.657C227.264 226.947 226.928 226.179 226.302 225.647C225.291 224.758 224.06 223.991 222.689 223.954C221.804 223.907 220.895 223.857 220.033 224.11C219.548 224.24 219.089 224.447 218.628 224.643C218.139 223.263 217.545 221.901 216.658 220.733C215.728 219.498 214.426 218.49 212.907 218.176C211.547 217.916 210.15 218.216 208.854 218.649C208.029 218.961 207.163 219.248 206.477 219.832C206.03 220.206 205.72 220.711 205.389 221.186C202.9 219.007 200.282 216.851 197.161 215.699C196.666 215.483 196.059 215.463 195.7 215.005C195.385 214.958 195.149 215.247 194.926 215.431C194.534 215.794 194.294 216.288 194.121 216.793C193.359 217.065 192.602 217.357 191.838 217.619C191.758 217.345 191.723 217.06 191.75 216.777C191.845 214.914 191.919 213.051 192.011 211.188C192.027 210.755 192.156 210.339 192.244 209.918C193.477 204.354 194.709 198.788 195.941 193.225C196.257 191.625 196.826 190.097 197.276 188.537C197.747 187.133 198.05 185.683 198.412 184.249C198.643 183.217 199.023 182.23 199.339 181.223C199.813 179.816 200.227 178.387 200.769 177.006C201.118 176.073 201.473 175.143 201.823 174.21Z" fill="#F4C6AC"/>
<path d="M195.958 222.462C195.62 220.6 195.809 218.697 195.86 216.819C199.128 217.803 201.828 220.029 204.372 222.251C204.863 222.639 205.283 223.122 205.816 223.451C206.222 222.726 206.594 221.973 207.092 221.305C207.485 220.777 208.11 220.525 208.694 220.288C209.922 219.806 211.25 219.423 212.577 219.619C213.864 219.877 214.925 220.797 215.669 221.863C216.694 223.316 217.26 225.035 217.71 226.748C218.859 226.234 219.958 225.477 221.244 225.398C221.938 225.379 222.642 225.388 223.323 225.538C224.07 225.788 224.751 226.224 225.337 226.757C225.809 227.158 226.028 227.761 226.33 228.289C226.816 229.175 227.245 230.127 227.307 231.157C227.388 232.212 227.324 233.331 226.791 234.267C226.321 235.142 225.753 235.956 225.27 236.822C226.577 236.833 227.895 236.782 229.193 236.975C230.566 237.189 231.811 237.855 233.004 238.546C233.378 238.65 233.563 239.013 233.79 239.302C235.23 241.239 236.554 243.291 238.278 244.987C236.223 246.138 233.847 247.031 231.469 246.634C230.945 246.548 230.408 246.531 229.893 246.41C229.147 245.815 228.847 244.84 228.225 244.131C227.59 243.403 226.82 242.811 226.044 242.248C225.169 241.655 224.269 241.049 223.245 240.765C221.778 240.429 220.276 240.209 218.866 239.654C218.443 239.477 217.987 239.284 217.721 238.884C217.176 238.112 216.51 237.43 216.042 236.602C215.605 235.836 215.669 234.916 215.643 234.064C215.649 233.33 215.553 232.601 215.508 231.871C214.434 232.329 213.632 233.259 212.646 233.875C212.381 234.024 212.085 234.198 211.772 234.112C210.986 233.964 210.195 233.822 209.436 233.566C208.362 233.22 207.444 232.531 206.476 231.969C206.004 231.711 205.673 231.24 205.594 230.699C205.245 228.622 205.085 226.511 205.104 224.402C203.83 224.826 202.591 225.606 201.205 225.443C199.652 225.25 198.204 224.595 196.795 223.937C196.24 223.681 196.088 223.009 195.958 222.462Z" fill="#F4C6AC"/>
<path d="M224.133 167.542C223.747 167.637 223.45 167.736 223.243 167.842C222.701 168.033 220.647 169.13 217.083 171.134C213.335 172.788 211.395 173.712 211.26 173.904C211.27 173.943 211.503 173.992 211.959 174.05C213.478 174.193 214.442 174.274 214.85 174.293C222.308 174.51 226.053 174.648 226.086 174.707C227.802 174.667 229.291 174.425 230.552 173.979L224.133 167.542Z" fill="#F4C6AC" fill-opacity="0.996078"/>
<path d="M192.158 216.864C192.488 217.076 192.797 217.249 193.084 217.383C195.118 218.207 196.502 218.813 197.238 219.2L199.473 220.403C199.848 220.582 200.022 220.634 199.996 220.557C200.072 220.424 200.148 219.913 200.224 219.026C200.26 218.797 200.277 217.91 200.275 216.366C200.445 214.541 200.549 213.639 200.587 213.659L200.633 212.556C200.7 210.755 200.611 209.616 200.367 209.138L192.158 216.864Z" fill="#F4C6AC" fill-opacity="0.996078"/>
<path d="M286.146 156.231L299.645 151.613L313.145 146.996C319.486 166.295 325.826 185.594 332.167 204.893C323.167 207.972 314.167 211.05 305.168 214.129C298.827 194.83 292.486 175.53 286.146 156.231Z" fill="white" fill-opacity="0.996078"/>
<path d="M296.364 148.654L347.247 130.415L370.134 196.893L319.252 215.132L296.364 148.654Z" fill="#1A1A1A"/>
<path d="M207.995 164.63L194.495 160.012L180.995 155.395C174.655 174.694 168.314 193.993 161.974 213.292C170.973 216.371 179.973 219.449 188.973 222.528C195.313 203.228 201.654 183.929 207.995 164.63Z" fill="white" fill-opacity="0.996078"/>
<path d="M197.776 157.053L146.893 138.814L124.006 205.292L174.889 223.531L197.776 157.053Z" fill="#1A1A1A"/>
<path d="M341.017 133.002L357.548 126.143L374.079 119.284C374.915 144.693 375.751 170.102 376.586 195.51C368.549 197.225 360.511 198.94 352.473 200.655L341.017 133.002Z" fill="#1A1A1A" fill-opacity="0.996078"/>
<path d="M173.229 148.387L147.822 139.19L122.415 129.993C122.479 156.419 122.543 182.846 122.608 209.273L173.229 148.387Z" fill="#1A1A1A" fill-opacity="0.996078"/>
<path d="M457.747 286.148L455.817 287.192C451.751 288.126 444.203 288.978 433.175 289.746L424.251 290.307C417.867 290.67 410.612 291.013 402.488 291.335C394.363 291.657 385.368 291.958 375.503 292.238C371.026 292.424 355.244 292.761 328.156 293.248C317.047 293.417 305.546 293.549 293.652 293.644C269.866 293.834 244.511 293.877 217.589 293.771C204.742 293.697 192.467 293.591 180.763 293.454C152.504 293.055 136.234 292.778 131.954 292.622C111.977 292.158 94.2852 291.567 78.8803 290.849C48.0954 289.403 33.5786 287.73 35.3302 285.828C36.6784 284.844 42.1593 283.949 51.773 283.141C53.0071 282.912 61.9309 282.352 78.5444 281.459C85.7989 281.116 93.9237 280.794 102.919 280.493C106.738 280.301 121.779 279.912 148.04 279.329C158.757 279.123 169.867 278.954 181.368 278.821C204.371 278.557 228.941 278.441 255.08 278.473C282.116 278.522 306.733 278.722 328.931 279.071C340.063 279.24 350.623 279.441 360.612 279.673C384.584 280.309 398.281 280.729 401.704 280.932C418.476 281.595 431.618 282.335 441.13 283.153C451.616 284.007 457.155 285.005 457.747 286.148Z" fill="black" fill-opacity="0.313726"/>
</svg>
