<svg width="110" height="125" viewBox="0 0 110 125" fill="none" xmlns="http://www.w3.org/2000/svg">
<path d="M15.927 1.06971C16.2224 0.975556 16.5354 1.00507 16.8407 1.00226C38.1739 1.00155 59.5072 1.00296 80.8404 1.00155C81.7478 1.01139 82.5732 1.73016 82.7409 2.61756C82.8258 2.94428 82.7156 3.28364 82.797 3.61036C82.8609 3.85346 82.8209 4.11624 82.9149 4.35162C87.3678 14.1313 91.8214 23.911 96.275 33.6907C96.4042 34.0061 96.1635 34.3251 96.0182 34.5949C95.5431 35.3221 94.9318 35.9475 94.3219 36.5615C93.6391 37.2536 92.8776 37.8789 91.999 38.3047C90.2964 39.15 88.2753 39.3235 86.452 38.7881C85.3537 38.4755 84.3382 37.8993 83.4841 37.144C83.463 37.1194 83.4216 37.0709 83.4013 37.0464C81.5134 26.3786 79.6256 15.7115 77.7392 5.04369C73.7403 5.04088 69.7415 5.04299 65.7427 5.04299C66.808 15.7108 67.8761 26.3786 68.9429 37.0464C68.0039 37.7419 67.1217 38.5457 66.0332 39.0038C63.9818 39.925 61.5242 39.8723 59.5156 38.8605C58.5689 38.4073 57.7885 37.6935 56.947 37.0794L57.0053 37.0316C56.441 27.2484 55.8536 17.4652 55.2817 7.6813C55.2276 6.80163 55.182 5.92126 55.1217 5.04158C50.7488 5.04299 46.3759 5.04158 42.003 5.04229C41.7342 15.7052 41.4682 26.368 41.1945 37.0309C41.2099 37.0428 41.2422 37.0667 41.2584 37.0787C40.452 37.638 39.6674 38.2296 38.8463 38.7671C36.4546 40.2692 33.227 40.2706 30.8318 38.7748C30.0212 38.2457 29.2464 37.664 28.4541 37.1082C28.4779 37.0913 28.5249 37.0576 28.5481 37.0407C29.3678 26.3758 30.1679 15.7087 30.9854 5.04299C27.0343 5.04158 23.0832 5.04229 19.1321 5.04299C17.5109 15.7108 15.8891 26.3779 14.2672 37.0456C12.7191 38.5991 10.4523 39.3882 8.27177 39.1907C6.68782 39.0629 5.14948 38.42 3.948 37.3773C3.03707 36.5559 2.11912 35.7226 1.39065 34.7291C1.20959 34.4354 0.950625 34.1115 1.00817 33.749C5.47581 23.9349 9.94696 14.1222 14.4139 4.30735C14.4841 4.07619 14.4602 3.82606 14.5065 3.58928C14.4427 3.18247 14.4132 2.75668 14.5592 2.36322C14.7669 1.74351 15.2968 1.24255 15.927 1.06971Z" fill="#E52929" stroke="#E52929" stroke-width="0.3"/>
<path d="M14.2672 37.0457C15.8891 26.3779 17.5109 15.7108 19.1321 5.04305C23.0832 5.04235 27.0343 5.04164 30.9854 5.04305C30.1678 15.7087 29.3678 26.3758 28.5481 37.0408C28.5249 37.0577 28.4779 37.0914 28.4541 37.1082C27.4722 37.7188 26.5367 38.42 25.4623 38.8641C23.26 39.821 20.7224 39.9651 18.4205 39.2856C17.3972 38.9842 16.4203 38.5226 15.5382 37.9226C15.1739 37.6738 14.8132 37.4195 14.4504 37.1694C14.3893 37.1272 14.3283 37.0858 14.2672 37.0457Z" fill="white" stroke="white" stroke-width="0.3"/>
<path d="M42.0029 5.04233C46.3758 5.04163 50.7487 5.04303 55.1216 5.04163C55.182 5.9213 55.2276 6.80167 55.2817 7.68135C55.8536 17.4652 56.441 27.2484 57.0053 37.0316L56.947 37.0794C56.234 37.5403 55.5097 37.9837 54.7925 38.4376C52.9741 39.606 50.7845 40.1772 48.6279 40.0529C47.3324 39.9805 46.0502 39.6657 44.8719 39.1219C44.0136 38.7193 43.2157 38.2029 42.391 37.7385C42.0142 37.5164 41.6331 37.3036 41.2583 37.0787C41.2422 37.0668 41.2099 37.0429 41.1945 37.0309C41.4682 26.3681 41.7342 15.7052 42.0029 5.04233Z" fill="white" stroke="white" stroke-width="0.3"/>
<path d="M65.7419 5.04299C69.7408 5.04299 73.7396 5.04089 77.7385 5.0437C79.6249 15.7115 81.5127 26.3786 83.4006 37.0464C83.19 37.1799 82.9809 37.3155 82.776 37.4553C82.757 37.4679 82.7198 37.4939 82.7009 37.5066C81.8475 38.0771 80.9843 38.6504 80.0186 39.0179C79.6228 39.1753 79.2171 39.3074 78.8066 39.4177C76.3047 40.0774 73.5593 39.7641 71.2791 38.5352C70.465 38.0968 69.7218 37.541 68.9421 37.0464C67.8754 26.3786 66.8073 15.7108 65.7419 5.04299Z" fill="white" stroke="white" stroke-width="0.3"/>
<path d="M68.9421 37.0464C69.7218 37.541 70.465 38.0968 71.2791 38.5352C73.5593 39.7641 76.3047 40.0775 78.8066 39.4177C78.8101 39.8695 78.808 40.3213 78.8087 40.773C76.2464 41.4869 73.4091 41.1068 71.117 39.7606C70.7872 39.5772 70.3935 39.6833 70.0355 39.6601C69.6594 39.6847 69.265 39.6011 68.9007 39.7051C68.1014 40.3079 67.3877 41.0351 66.5041 41.5199C65.4065 42.1474 64.1447 42.4966 62.8786 42.4713C61.3817 42.4825 59.9016 41.9689 58.6875 41.1019C58.1548 40.7021 57.6488 40.2686 57.1344 39.8456C57.0123 39.7437 56.8733 39.6439 56.7063 39.6594C56.1884 39.6552 55.6712 39.6601 55.1539 39.6573C54.9841 39.6475 54.829 39.7226 54.6928 39.8154C53.6928 40.4857 52.5587 40.9459 51.3888 41.2178C50.4835 41.4286 49.5501 41.475 48.6237 41.4609V41.4258C48.6237 40.9684 48.6174 40.5103 48.6272 40.0529C50.7838 40.1772 52.9734 39.606 54.7918 38.4376C55.509 37.9837 56.2333 37.5403 56.9463 37.0794C57.7878 37.6935 58.5682 38.4074 59.5149 38.8605C61.5234 39.8723 63.9811 39.925 66.0325 39.0039C67.121 38.5458 68.0031 37.742 68.9421 37.0464Z" fill="#347190" stroke="#347190" stroke-width="0.3"/>
<path d="M25.4623 38.864C26.5367 38.4199 27.4722 37.7187 28.454 37.1081C29.2464 37.6639 30.0212 38.2457 30.8317 38.7747C33.227 40.2706 36.4545 40.2692 38.8463 38.767C39.6674 38.2295 40.452 37.6379 41.2583 37.0786C41.6331 37.3034 42.0142 37.5163 42.391 37.7384C43.2157 38.2028 44.0136 38.7192 44.8719 39.1218C46.0502 39.6656 47.3324 39.9804 48.6279 40.0528C48.6181 40.5102 48.6244 40.9683 48.6244 41.4257C46.8573 41.361 45.1323 40.7449 43.6529 39.7879C43.4262 39.6256 43.1399 39.6586 42.8781 39.6586C42.4093 39.6663 41.9398 39.6474 41.4717 39.6607C41.2148 39.6558 41.0415 39.875 40.8471 40.0085C40.1649 40.5172 39.5095 41.061 38.8084 41.543C37.5655 42.3496 36.0784 42.7902 34.5948 42.7347C33.2108 42.6827 31.8374 42.2365 30.7061 41.4334C30.1159 41.0231 29.5636 40.5622 28.9846 40.1371C28.7671 39.9867 28.5867 39.7738 28.3397 39.6734C27.9466 39.6312 27.5508 39.6734 27.1571 39.6586C26.8701 39.667 26.5557 39.6094 26.2995 39.771C23.9408 41.1264 21.0143 41.4475 18.4198 40.631C18.4191 40.1828 18.4184 39.7338 18.4205 39.2855C20.7224 39.9649 23.26 39.8209 25.4623 38.864Z" fill="#216689" stroke="#216689" stroke-width="0.3"/>
<path d="M14.4504 37.1693C14.8132 37.4194 15.1739 37.6738 15.5382 37.9225C16.4203 38.5225 17.3972 38.9842 18.4205 39.2856C18.4184 39.7339 18.4191 40.1828 18.4198 40.6311C18.4205 59.7415 18.4198 78.8519 18.4205 97.9616C18.3889 98.3255 18.7166 98.66 19.0808 98.6312C28.9278 98.6319 38.774 98.6305 48.6202 98.6319C48.6167 99.846 48.6069 101.06 48.6237 102.274C47.324 102.232 46.0109 102.646 44.9842 103.448C44.0887 104.135 43.4086 105.098 43.0585 106.171C42.6619 107.382 42.6872 108.726 43.1307 109.921C43.596 111.182 44.5266 112.266 45.7063 112.91C46.5906 113.404 47.6103 113.642 48.6216 113.613C48.6146 114.625 48.609 115.639 48.6223 116.653H21.5399C20.8388 116.636 20.1321 116.702 19.4381 116.577C18.2204 116.377 17.0723 115.781 16.2049 114.903C15.1424 113.854 14.4981 112.389 14.4553 110.895C14.4539 86.8153 14.4553 62.736 14.4539 38.6589C14.4364 38.1635 14.4342 37.6675 14.4504 37.1714V37.1693Z" fill="#1B2326" stroke="#1B2326" stroke-width="0.3"/>
<path d="M82.7044 37.5066C82.7233 37.494 82.7605 37.468 82.7795 37.4553C82.7795 45.6569 82.7781 53.8585 82.7788 62.0602C82.7844 68.9233 82.7682 75.7871 82.7872 82.6503C82.43 82.1718 82.0924 81.6786 81.7233 81.2085C81.0285 80.3576 79.9028 79.9044 78.8129 80C78.8108 66.9244 78.8129 53.8487 78.8122 40.7731C79.4558 40.5841 80.093 40.362 80.6867 40.0452C80.9541 39.9264 81.1927 39.7381 81.4769 39.6587C81.8896 39.618 82.3058 39.6714 82.7205 39.6369C82.7275 38.9266 82.7332 38.2163 82.7044 37.5066Z" fill="#32393C" stroke="#32393C" stroke-width="0.3"/>
<path d="M80.0165 39.0179C80.9822 38.6504 81.8454 38.0771 82.6988 37.5066C82.7275 38.2162 82.7219 38.9266 82.7149 39.6369C82.3002 39.6713 81.884 39.6179 81.4713 39.6587C81.1871 39.7381 80.9485 39.9264 80.6811 40.0451C80.0874 40.362 79.4501 40.584 78.8066 40.773C78.8059 40.3213 78.808 39.8695 78.8045 39.4177C79.215 39.3074 79.6207 39.1753 80.0165 39.0179Z" fill="#2F3436" stroke="#2F3436" stroke-width="0.3"/>
<path d="M26.2995 39.7711C26.5557 39.6095 26.8701 39.6671 27.1571 39.6586C27.5508 39.6734 27.9467 39.6312 28.3397 39.6734C28.5867 39.7739 28.7671 39.9868 28.9846 40.1371C29.5636 40.5622 30.1159 41.0231 30.7061 41.4334C31.8374 42.2365 33.2108 42.6827 34.5948 42.7347C36.0784 42.7902 37.5655 42.3496 38.8084 41.543C39.5095 41.0611 40.1649 40.5172 40.8471 40.0085C41.0415 39.875 41.2148 39.6558 41.4717 39.6607C41.9398 39.6474 42.4093 39.6664 42.8781 39.6586C43.1399 39.6586 43.4262 39.6256 43.6529 39.7879C45.1323 40.7449 46.8573 41.3611 48.6244 41.4257V41.4608C48.6188 43.9354 48.6118 46.4108 48.6244 48.8854C48.1689 48.8861 47.7135 48.884 47.2587 48.8868C47.7037 50.951 48.1612 53.0125 48.6118 55.0761C48.6279 59.908 48.6174 64.7406 48.6181 69.5724C48.6013 70.0825 48.6616 70.5968 48.5781 71.1034C47.9872 70.7697 47.6265 70.1141 47.6117 69.4417C47.538 67.9655 47.5689 66.4865 47.5619 65.0096C47.5619 63.8623 47.5626 62.7149 47.5619 61.5675H45.2291C45.227 63.6754 45.2291 65.7832 45.2284 67.8911C45.2193 68.7173 45.2516 69.5478 45.3793 70.3657C45.4537 70.9074 45.667 71.428 45.9969 71.8651C46.611 72.7026 47.6166 73.1916 48.6349 73.3026C48.5963 75.0816 48.6321 76.862 48.6174 78.6411C48.6104 78.8877 48.6363 79.1336 48.6686 79.3788C48.2974 81.1255 47.9065 82.868 47.5275 84.6133C47.8924 84.6133 48.2574 84.6126 48.623 84.6133C48.6167 89.2864 48.6202 93.9595 48.6202 98.6318C38.774 98.6304 28.9278 98.6318 19.0809 98.6311C18.7166 98.6599 18.3889 98.3255 18.4205 97.9615C18.4198 78.8518 18.4205 59.7415 18.4198 40.6311C21.0143 41.4475 23.9408 41.1264 26.2995 39.7711ZM25.9206 56.39C27.5508 57.576 29.1973 58.7409 30.8353 59.9157C31.0332 60.0471 31.2093 60.2136 31.4297 60.3092C30.2598 58.3826 29.0822 56.4616 27.9074 54.5379C27.2456 55.1555 26.5824 55.7717 25.9206 56.39ZM33.5968 61.5675C33.5954 65.4319 33.5954 69.2963 33.5968 73.1607C35.3085 73.1607 37.0209 73.1614 38.7333 73.16C39.3867 73.1291 40.0463 73.1551 40.6934 73.0419C41.457 72.9112 42.1756 72.4918 42.6254 71.8538C43.356 70.8526 43.5469 69.3961 42.8837 68.3134C42.5012 67.6648 41.8268 67.2517 41.1215 67.036C42.1145 66.6046 42.7658 65.5254 42.7216 64.4476C42.7335 63.0409 41.5349 61.7952 40.153 61.6554C39.1719 61.5205 38.1796 61.5809 37.1928 61.5676C35.9942 61.5675 34.7955 61.5668 33.5968 61.5675ZM25.9206 77.3813C26.5754 78.008 27.2442 78.6207 27.9074 79.239C29.0899 77.3061 30.2731 75.3739 31.4493 73.4375C29.5945 74.7345 27.7635 76.0674 25.9206 77.3813Z" fill="#2178A3" stroke="#2178A3" stroke-width="0.3"/>
<path d="M54.6935 39.8154C54.8297 39.7227 54.9848 39.6475 55.1546 39.6573C55.6719 39.6601 56.1891 39.6552 56.707 39.6594C56.874 39.644 57.013 39.7437 57.1351 39.8456C57.6495 40.2686 58.1555 40.7021 58.6882 41.1019C59.9023 41.9689 61.3824 42.4825 62.8793 42.4713C64.1454 42.4966 65.4072 42.1474 66.5048 41.5199C67.3884 41.0351 68.1021 40.3079 68.9014 39.7051C69.2657 39.6011 69.6601 39.6847 70.0362 39.6601C70.3942 39.6833 70.7879 39.5772 71.1177 39.7606C73.4098 41.1068 76.2471 41.4869 78.8094 40.7731C78.8101 53.8487 78.808 66.9244 78.8101 80C77.6936 80.0984 76.6528 80.7715 76.052 81.7102C75.3432 82.8308 75.3678 84.3745 76.137 85.4593C77.0268 86.684 77.9237 87.9044 78.815 89.1284C78.8101 89.3722 78.8031 89.6167 78.8066 89.8619C77.6185 88.2466 76.4444 86.6207 75.2527 85.0082C74.3656 83.8461 72.6918 83.4021 71.3402 83.9466C70.4363 84.326 69.6299 85.0209 69.2643 85.9483C68.8846 86.8835 68.9323 87.9922 69.4215 88.8789C69.5724 89.1614 69.7759 89.4101 69.9626 89.6701C71.0265 91.1266 72.0904 92.5831 73.155 94.0396C73.0343 94.1239 72.9143 94.2097 72.795 94.2954C68.1575 87.9508 63.5215 81.6048 58.8847 75.2602C58.5191 74.788 58.2166 74.2568 57.7569 73.8669C56.7295 72.9711 55.1546 72.7926 53.9532 73.4348C53.403 73.7439 52.8864 74.1437 52.5397 74.6791C51.805 75.7639 51.7706 77.2781 52.478 78.3847C52.7376 78.7746 53.0261 79.1435 53.2991 79.5243C57.9527 85.8935 62.6077 92.2627 67.2606 98.6326C61.0476 98.6298 54.8339 98.6305 48.6202 98.6319C48.6202 93.9595 48.6167 89.2864 48.623 84.6134C49.1627 84.6134 49.7031 84.6127 50.2428 84.6134C49.7866 82.5554 49.3452 80.4939 48.8848 78.4367C48.809 78.7494 48.7437 79.0655 48.6686 79.3789C48.6363 79.1337 48.6104 78.8878 48.6174 78.6411C48.6321 76.8621 48.5963 75.0817 48.6349 73.3027C49.402 73.3961 50.1803 73.3975 50.9495 73.3301C52.0597 73.2219 53.2008 72.7125 53.8149 71.7429C54.3363 70.9363 54.3799 69.9456 54.4262 69.0153C54.4893 66.5337 54.443 64.0507 54.4571 61.5676C53.6724 61.5676 52.8885 61.5662 52.1046 61.569C52.1074 63.6298 52.1046 65.6899 52.106 67.7506C52.0976 68.4757 52.1046 69.2057 52.0071 69.9266C51.9194 70.6243 51.3355 71.2005 50.6498 71.322C49.9613 71.4443 49.2104 71.4351 48.5781 71.1035C48.6616 70.5969 48.6013 70.0826 48.6181 69.5725C48.6174 64.7406 48.6279 59.9081 48.6118 55.0762C49.0785 53.0154 49.5199 50.949 49.9733 48.8861C49.5234 48.8847 49.0736 48.8854 48.6244 48.8854C48.6118 46.4108 48.6188 43.9355 48.6244 41.4609C49.5508 41.475 50.4842 41.4286 51.3895 41.2178C52.5594 40.9459 53.6935 40.4857 54.6935 39.8154ZM69.3632 57.2416C68.9218 58.4333 68.434 59.6108 68.0207 60.8116C69.5906 59.1984 71.1486 57.5726 72.708 55.9488C71.9486 55.4612 71.183 54.9841 70.4264 54.4923C70.0468 55.398 69.7225 56.3275 69.3632 57.2416ZM55.6817 61.5683C57.0712 63.7731 58.4601 65.9786 59.8532 68.1813C59.896 68.2404 59.9163 68.3071 59.9135 68.3816C59.9142 69.9744 59.9128 71.5672 59.9142 73.1601C60.6974 73.1615 61.4806 73.1608 62.2638 73.1601C62.2645 71.5911 62.2652 70.0229 62.2631 68.4539C62.24 68.2642 62.3853 68.1223 62.4716 67.9705C63.8218 65.8374 65.1665 63.7015 66.5153 61.5676H63.7994C62.9207 63.0916 62.0351 64.6106 61.1599 66.1367C60.2476 64.6184 59.35 63.0902 58.444 61.5669C57.5232 61.5683 56.6024 61.5662 55.6817 61.5683ZM66.2767 74.2484C67.7231 75.9853 69.1639 77.727 70.623 79.4541C71.1795 78.7388 71.7564 78.039 72.3115 77.3223C70.2959 76.305 68.2986 75.251 66.2767 74.2484Z" fill="#3886AC" stroke="#3886AC" stroke-width="0.3"/>
<path d="M47.2587 48.8868C47.7135 48.884 48.1689 48.8861 48.6244 48.8854C49.0736 48.8854 49.5234 48.8847 49.9733 48.8861C49.5199 50.949 49.0785 53.0154 48.6118 55.0762C48.1612 53.0126 47.7037 50.9511 47.2587 48.8868Z" fill="#FDC00F" stroke="#FDC00F" stroke-width="0.3"/>
<path d="M25.9206 56.3901C26.5824 55.7718 27.2456 55.1556 27.9074 54.538C29.0822 56.4617 30.2598 58.3827 31.4297 60.3092C31.2093 60.2137 31.0332 60.0472 30.8352 59.9158C29.1973 58.741 27.5508 57.5761 25.9206 56.3901Z" fill="#FDC00F" stroke="#FDC00F" stroke-width="0.3"/>
<path d="M69.3632 57.2416C69.7225 56.3275 70.0468 55.398 70.4264 54.4923C71.183 54.9841 71.9486 55.4612 72.708 55.9488C71.1486 57.5726 69.5906 59.1984 68.0207 60.8116C68.434 59.6109 68.9218 58.4333 69.3632 57.2416Z" fill="#FDC00F" stroke="#FDC00F" stroke-width="0.3"/>
<path d="M33.5968 61.5676C34.7955 61.5669 35.9942 61.5676 37.1928 61.5676C38.1796 61.581 39.1719 61.5205 40.153 61.6554C41.5348 61.7953 42.7335 63.041 42.7216 64.4476C42.7658 65.5254 42.1145 66.6047 41.1215 67.0361C41.8268 67.2518 42.5012 67.6649 42.8837 68.3134C43.5469 69.3961 43.356 70.8527 42.6254 71.8539C42.1756 72.4919 41.4569 72.9113 40.6934 73.042C40.0463 73.1551 39.3866 73.1291 38.7333 73.16C37.0209 73.1614 35.3085 73.1607 33.5968 73.1607C33.5954 69.2964 33.5954 65.432 33.5968 61.5676ZM35.9471 63.5356C35.9471 64.4251 35.9478 65.3147 35.9464 66.2042C36.83 66.2189 37.7122 66.1796 38.595 66.1866C39.0568 66.1761 39.56 66.1599 39.9439 65.869C40.6162 65.3926 40.6043 64.2122 39.8898 63.7822C39.48 63.5377 38.9845 63.5665 38.5255 63.5518C37.6658 63.5651 36.8068 63.5216 35.9471 63.5356ZM35.9471 68.1729V71.1934C37.0195 71.1983 38.0918 71.1913 39.1642 71.166C39.5403 71.1485 39.9376 71.1112 40.2597 70.8969C41.0352 70.4198 41.0625 69.1453 40.3544 68.5959C39.9207 68.2445 39.3368 68.2361 38.807 68.2017C37.8539 68.1743 36.9009 68.1666 35.9471 68.1729Z" fill="white" stroke="white" stroke-width="0.3"/>
<path d="M45.2291 61.5676H47.5619C47.5626 62.715 47.5619 63.8623 47.5619 65.0097C47.5689 66.4866 47.538 67.9656 47.6117 69.4418C47.6265 70.1142 47.9872 70.7697 48.5781 71.1035C49.2104 71.4351 49.9613 71.4443 50.6498 71.322C51.3355 71.2004 51.9194 70.6243 52.0071 69.9266C52.1046 69.2057 52.0976 68.4757 52.106 67.7506C52.1046 65.6898 52.1074 63.6298 52.1046 61.569C52.8885 61.5662 53.6724 61.5676 54.4571 61.5676C54.443 64.0506 54.4893 66.5337 54.4262 69.0153C54.3799 69.9456 54.3363 70.9363 53.8149 71.7429C53.2008 72.7125 52.0597 73.2219 50.9495 73.3301C50.1803 73.3975 49.402 73.3961 48.6349 73.3027C47.6166 73.1917 46.611 72.7026 45.9969 71.8651C45.667 71.4281 45.4537 70.9075 45.3793 70.3657C45.2516 69.5479 45.2193 68.7174 45.2284 67.8911C45.2291 65.7833 45.227 63.6755 45.2291 61.5676Z" fill="white" stroke="white" stroke-width="0.3"/>
<path d="M55.6817 61.5683C56.6024 61.5662 57.5232 61.5683 58.444 61.5669C59.35 63.0902 60.2476 64.6183 61.1599 66.1367C62.0351 64.6106 62.9207 63.0916 63.7994 61.5676H66.5153C65.1665 63.7014 63.8218 65.8374 62.4716 67.9705C62.3852 68.1223 62.24 68.2642 62.2631 68.4539C62.2652 70.0229 62.2645 71.5911 62.2638 73.16C61.4806 73.1607 60.6974 73.1614 59.9142 73.16C59.9128 71.5672 59.9142 69.9744 59.9135 68.3815C59.9163 68.3071 59.896 68.2403 59.8532 68.1813C58.4601 65.9786 57.0712 63.7731 55.6817 61.5683Z" fill="white" stroke="white" stroke-width="0.3"/>
<path d="M35.9471 63.5355C36.8068 63.5215 37.6658 63.5651 38.5255 63.5517C38.9845 63.5665 39.48 63.5377 39.8898 63.7822C40.6043 64.2122 40.6162 65.3925 39.9439 65.8689C39.56 66.1598 39.0568 66.176 38.595 66.1865C37.7122 66.1795 36.83 66.2188 35.9464 66.2041C35.9478 65.3146 35.9471 64.4251 35.9471 63.5355Z" fill="#2178A3" stroke="#2178A3" stroke-width="0.3"/>
<path d="M35.9471 68.1721C36.9009 68.1658 37.8539 68.1735 38.807 68.2009C39.3368 68.2354 39.9207 68.2438 40.3544 68.5951C41.0625 69.1445 41.0352 70.4191 40.2597 70.8962C39.9376 71.1104 39.5403 71.1477 39.1642 71.1653C38.0918 71.1905 37.0195 71.1976 35.9471 71.1927V68.1721Z" fill="#2178A3" stroke="#2178A3" stroke-width="0.3"/>
<path d="M53.9532 73.4347C55.1546 72.7925 56.7295 72.971 57.7569 73.8668C58.2166 74.2568 58.5191 74.788 58.8847 75.2601C63.5215 81.6047 68.1575 87.9507 72.795 94.2953C72.9143 94.2096 73.0343 94.1239 73.155 94.0396C72.0904 92.5831 71.0265 91.1265 69.9626 89.67C69.7759 89.41 69.5724 89.1613 69.4215 88.8789C68.9323 87.9922 68.8846 86.8835 69.2643 85.9483C69.6299 85.0208 70.4363 84.3259 71.3402 83.9465C72.6918 83.402 74.3656 83.846 75.2527 85.0082C76.4444 86.6207 77.6185 88.2465 78.8066 89.8618L78.8234 89.8899C78.9414 89.8 79.0572 89.7058 79.175 89.6145C79.0536 89.4522 78.9336 89.2899 78.815 89.1283C77.9237 87.9044 77.0269 86.6839 76.137 85.4593C75.3678 84.3744 75.3432 82.8308 76.052 81.7101C76.6528 80.7714 77.6935 80.0983 78.8101 79.9999C79.9 79.9044 81.0257 80.3576 81.7205 81.2084C82.0896 81.6785 82.4272 82.1717 82.7844 82.6502C83.4721 83.591 84.1592 84.5332 84.8477 85.474C84.9649 85.3862 85.0828 85.2984 85.2014 85.2112C84.6947 84.51 84.1817 83.8137 83.6722 83.116C83.2798 82.5968 83.0251 81.9715 82.9767 81.3209C82.8623 80.1103 83.4469 78.8666 84.4603 78.1942C85.5024 77.3813 87.0211 77.2703 88.1742 77.9125C88.6079 78.1535 88.9953 78.4823 89.2851 78.8877C90.7722 80.9211 92.2551 82.958 93.7457 84.9892C93.3233 85.2485 92.9408 85.5654 92.5372 85.8527C86.1326 90.5399 79.7323 95.2326 73.327 99.9191C72.2209 100.744 71.0868 101.532 69.9997 102.381C69.0874 101.13 68.1744 99.8818 67.2606 98.6326C62.6077 92.2627 57.9527 85.8935 53.2991 79.5243C53.0261 79.1435 52.7376 78.7746 52.478 78.3846C51.7706 77.278 51.8049 75.7639 52.5397 74.6791C52.8864 74.1437 53.4029 73.7439 53.9532 73.4347Z" fill="#F9B23E" stroke="#F9B23E" stroke-width="0.3"/>
<path d="M25.9206 77.3835C27.7635 76.0696 29.5945 74.7367 31.4493 73.4397C30.2731 75.3761 29.0899 77.3083 27.9074 79.2412C27.2442 78.6229 26.5753 78.0102 25.9206 77.3835Z" fill="#FDC00F" stroke="#FDC00F" stroke-width="0.3"/>
<path d="M66.2753 74.2498C68.2972 75.2524 70.2945 76.3063 72.3101 77.3237C71.7549 78.0404 71.1781 78.7402 70.6215 79.4554C69.1625 77.7284 67.7217 75.9866 66.2753 74.2498Z" fill="#FDC00F" stroke="#FDC00F" stroke-width="0.3"/>
<path d="M48.6686 79.3789C48.7437 79.0655 48.809 78.7493 48.8848 78.4366C49.3451 80.4939 49.7866 82.5554 50.2428 84.6133C49.7031 84.6126 49.1627 84.6133 48.623 84.6133C48.2574 84.6126 47.8924 84.6133 47.5275 84.6133C47.9065 82.868 48.2974 81.1256 48.6686 79.3789Z" fill="#FDC00F" stroke="#FDC00F" stroke-width="0.3"/>
<path d="M92.5366 85.85C92.9401 85.5626 93.3226 85.2457 93.7451 84.9865C95.0567 86.7816 96.3684 88.5768 97.6807 90.372C97.9678 90.783 98.292 91.1709 98.5552 91.5973C99.9026 96.8037 101.245 102.012 102.581 107.222C97.7116 110.791 92.8433 114.36 87.9686 117.923C85.819 116.73 83.6644 115.544 81.5169 114.348C81.3857 114.274 81.2552 114.204 81.1239 114.136C80.7148 114.415 80.1976 114.385 79.7274 114.359C78.3308 114.235 76.9981 113.773 75.6422 113.448C75.0794 113.302 74.5158 113.159 73.9537 113.012C73.5003 110.758 73.0329 108.506 72.5774 106.252C72.5339 106.073 72.5332 105.876 72.4455 105.713C71.6167 104.611 70.8131 103.49 69.999 102.378C71.0861 101.529 72.2202 100.741 73.3263 99.9163C79.7316 95.2298 86.132 90.5371 92.5366 85.85Z" fill="#FAC165" stroke="#FAC165" stroke-width="0.3"/>
<path d="M78.8164 89.1311C78.935 89.2927 79.055 89.455 79.1764 89.6173C79.0585 89.7086 78.9427 89.8028 78.8248 89.8927L78.808 89.8646C78.8045 89.6194 78.8115 89.3749 78.8164 89.1311Z" fill="#32393C" stroke="#32393C" stroke-width="0.3"/>
<path d="M48.6202 98.6305C54.8339 98.6291 61.0476 98.6284 67.2606 98.6312C68.1744 99.8805 69.0874 101.129 69.9997 102.38C70.8138 103.492 71.6174 104.613 72.4462 105.714C72.362 105.875 72.2097 105.978 72.0707 106.085C70.7991 104.324 69.5274 102.563 68.2579 100.801C67.9919 100.415 67.6466 100.085 67.2466 99.8411C66.2437 99.2137 64.9103 99.1617 63.8653 99.7203C63.205 100.081 62.6077 100.599 62.2645 101.28C61.6835 102.382 61.7649 103.802 62.4919 104.817C63.7643 106.585 65.0415 108.348 66.3139 110.116C66.5609 110.473 66.855 110.801 67.2136 111.05C67.5498 111.307 67.9765 111.381 68.3695 111.51C70.2222 112.045 72.0897 112.525 73.9544 113.014C74.5165 113.161 75.0801 113.303 75.6429 113.449C76.9988 113.774 78.3315 114.236 79.7281 114.36C80.1983 114.386 80.7155 114.416 81.1246 114.138C81.2559 114.205 81.3864 114.275 81.5176 114.349C80.6797 115.411 79.4887 116.196 78.1673 116.499C77.643 116.625 77.1012 116.666 76.563 116.651H48.6223C48.609 115.638 48.6146 114.624 48.6216 113.612C49.708 113.574 50.7852 113.227 51.6758 112.601C52.8247 111.806 53.664 110.57 53.9651 109.203C54.2788 107.842 54.0682 106.368 53.3777 105.154C52.4373 103.451 50.5684 102.316 48.6237 102.272C48.6069 101.059 48.6167 99.8446 48.6202 98.6305Z" fill="#32393C" stroke="#32393C" stroke-width="0.3"/>
<path d="M63.8681 99.7195C64.9131 99.1609 66.2465 99.2129 67.2494 99.8403C67.6494 100.084 67.9947 100.414 68.2607 100.8C69.5302 102.562 70.8019 104.323 72.0736 106.084C72.2125 105.977 72.3648 105.874 72.449 105.713C72.5367 105.876 72.5375 106.073 72.581 106.253C73.0364 108.506 73.5038 110.758 73.9572 113.013C72.0925 112.524 70.225 112.044 68.3723 111.509C67.9793 111.38 67.5526 111.306 67.2164 111.049C66.8578 110.8 66.5638 110.472 66.3167 110.115C65.0444 108.348 63.7671 106.584 62.4947 104.816C61.7677 103.801 61.6863 102.381 62.2674 101.279C62.6105 100.598 63.2078 100.081 63.8681 99.7195Z" fill="#F9B23E" stroke="#F9B23E" stroke-width="0.3"/>
<path d="M44.9842 103.45C46.0109 102.648 47.324 102.234 48.6237 102.276C50.5684 102.32 52.4373 103.455 53.3777 105.158C54.0683 106.372 54.2788 107.846 53.9651 109.207C53.664 110.574 52.8247 111.809 51.6758 112.604C50.7852 113.231 49.708 113.577 48.6216 113.615C47.6103 113.644 46.5906 113.406 45.7063 112.913C44.5266 112.268 43.596 111.184 43.1307 109.923C42.6872 108.728 42.6619 107.384 43.0585 106.173C43.4087 105.1 44.0887 104.138 44.9842 103.45Z" fill="#FDC00F" stroke="#FDC00F" stroke-width="0.3"/>
<path d="M105.744 104.905C105.967 104.718 106.346 104.763 106.507 105.012C107.413 106.257 108.328 107.497 109.231 108.745C109.415 108.986 109.326 109.352 109.07 109.503C102.154 114.569 95.2371 119.635 88.3202 124.701C88.0998 124.879 87.7342 124.835 87.5734 124.598C86.6639 123.355 85.7544 122.113 84.8484 120.867C84.6764 120.65 84.7178 120.302 84.9445 120.14C85.9516 119.402 86.9587 118.664 87.9665 117.927C92.8411 114.364 97.7095 110.795 102.579 107.226C103.632 106.448 104.691 105.68 105.744 104.905Z" fill="#1B2326" stroke="#1B2326" stroke-width="0.3"/>
</svg>
