<svg viewBox="0 0 397 275" fill="none" xmlns="http://www.w3.org/2000/svg">
<g clip-path="url(#clip0_5_73)">
<path d="M397 9.91821e-05H-3.05176e-05V275H397V9.91821e-05Z" fill="#81D4FA"/>
<path d="M169.129 203.308L228.12 204.642L232.97 250.796H164.037L169.129 203.308Z" fill="#F2F2F2"/>
<path d="M169.129 203.308L167.588 217.678H229.49L228.12 204.642L169.129 203.308L169.129 203.308Z" fill="#CCCCCC"/>
<path d="M319.764 214.369H77.238C70.5284 214.369 65.0891 208.931 65.0891 202.223V51.3598C65.0891 44.6517 70.5284 39.2138 77.238 39.2138H319.764C326.474 39.2138 331.913 44.6517 331.913 51.3598V202.223C331.913 208.931 326.474 214.369 319.764 214.369Z" fill="white"/>
<path fill-rule="evenodd" clip-rule="evenodd" d="M65.0501 35.5143V189.944H331.953V35.5143H65.0501ZM71.3416 43.4951H324.505L290.552 170.694L100.835 158.008L71.3416 43.4951Z" fill="#333333"/>
<path d="M318.129 24.2055H78.8673C71.2399 24.2055 65.0567 30.3873 65.0567 38.0129V83.9284C65.0567 91.554 71.2399 97.7358 78.8673 97.7358H318.129C325.757 97.7358 331.94 91.554 331.94 83.9284V38.0129C331.94 30.3873 325.757 24.2055 318.129 24.2055Z" fill="#333333"/>
<path d="M321.157 35.938H75.8445V177.25H321.157V35.938Z" fill="white"/>
<path d="M250.838 243.803H146.166C145.049 243.803 144.144 244.708 144.144 245.824V248.774C144.144 249.89 145.049 250.795 146.166 250.795H250.838C251.954 250.795 252.859 249.89 252.859 248.774V245.824C252.859 244.708 251.954 243.803 250.838 243.803Z" fill="white"/>
<path d="M198.5 209.326C202.288 209.326 205.359 206.255 205.359 202.468C205.359 198.681 202.288 195.611 198.5 195.611C194.712 195.611 191.641 198.681 191.641 202.468C191.641 206.255 194.712 209.326 198.5 209.326Z" fill="#333333"/>
<path d="M290.068 36.402C231.881 37.0963 173.605 36.4805 115.385 36.7137C106.868 36.7375 95.2975 34.6564 90.865 43.8987C86.853 51.9665 90.1711 61.1592 89.1654 69.7512C89.4032 101.71 88.3524 133.779 89.7921 165.667C92.8349 174.756 104.234 175.983 112.753 174.828C174.185 174.609 235.664 175.295 297.07 174.471C307.384 172.232 309.143 160.856 307.777 152.522C307.397 116.983 308.637 81.337 307.123 45.8667C304.997 39.1408 296.965 36.0261 290.07 36.4028L290.068 36.402Z" fill="white"/>
<g filter="url(#filter0_f_5_73)">
<path d="M286.084 42.9984H110.924V161.532H286.084V42.9984Z" fill="#7E57C2"/>
</g>
<path d="M285.529 36.8899H111.471V175.166H285.529V36.8899Z" fill="white"/>
<path d="M125.441 132.594H229.959V158.33H125.441V132.594Z" fill="#ECEFF1"/>
<path d="M225.999 52.8783H126.088C125.246 52.8783 124.563 53.4944 124.563 54.2545V109.561C124.563 110.321 125.246 110.937 126.088 110.937H225.999C226.842 110.937 227.524 110.321 227.524 109.561V54.2545C227.524 53.4944 226.842 52.8783 225.999 52.8783Z" fill="#263238"/>
<path d="M176.044 92.3685C183.766 92.3685 190.026 86.6694 190.026 79.6391C190.026 72.6088 183.766 66.9096 176.044 66.9096C168.322 66.9096 162.062 72.6088 162.062 79.6391C162.062 86.6694 168.322 92.3685 176.044 92.3685Z" fill="white"/>
<path d="M176.044 90.7003C182.754 90.7003 188.193 85.748 188.193 79.6391C188.193 73.5301 182.754 68.5778 176.044 68.5778C169.334 68.5778 163.895 73.5301 163.895 79.6391C163.895 85.748 169.334 90.7003 176.044 90.7003Z" fill="#263238"/>
<path d="M226.121 103.481H125.967C125.192 103.481 124.563 104.048 124.563 104.747V109.675C124.563 110.374 125.192 110.941 125.967 110.941H226.121C226.896 110.941 227.524 110.374 227.524 109.675V104.747C227.524 104.048 226.896 103.481 226.121 103.481Z" fill="#455A64"/>
<path d="M180.74 106.316H138.543C137.898 106.316 137.375 106.788 137.375 107.37C137.375 107.952 137.898 108.424 138.543 108.424H180.74C181.385 108.424 181.908 107.952 181.908 107.37C181.908 106.788 181.385 106.316 180.74 106.316Z" fill="#263238"/>
<path d="M164.53 106.316H138.543C137.898 106.316 137.375 106.788 137.375 107.37C137.375 107.952 137.898 108.424 138.543 108.424H164.53C165.175 108.424 165.698 107.952 165.698 107.37C165.698 106.788 165.175 106.316 164.53 106.316Z" fill="#546E7A"/>
<path d="M217.731 105.591H217.076C216.937 105.591 216.825 105.693 216.825 105.818V108.894C216.825 109.02 216.937 109.121 217.076 109.121H217.731C217.87 109.121 217.982 109.02 217.982 108.894V105.818C217.982 105.693 217.87 105.591 217.731 105.591Z" fill="#90A4AE"/>
<path d="M216.207 106.295H215.451C215.34 106.295 215.25 106.376 215.25 106.476V108.942C215.25 109.042 215.34 109.123 215.451 109.123H216.207C216.318 109.123 216.408 109.042 216.408 108.942V106.476C216.408 106.376 216.318 106.295 216.207 106.295Z" fill="#90A4AE"/>
<path d="M214.619 106.998H213.764C213.68 106.998 213.613 107.059 213.613 107.135V108.989C213.613 109.064 213.68 109.125 213.764 109.125H214.619C214.703 109.125 214.77 109.064 214.77 108.989V107.135C214.77 107.059 214.703 106.998 214.619 106.998Z" fill="#90A4AE"/>
<path d="M213.108 107.681H212.189C212.123 107.681 212.07 107.729 212.07 107.788V109.02C212.07 109.079 212.123 109.127 212.189 109.127H213.108C213.174 109.127 213.227 109.079 213.227 109.02V107.788C213.227 107.729 213.174 107.681 213.108 107.681Z" fill="#90A4AE"/>
<path d="M211.54 108.237H210.671C210.591 108.237 210.527 108.295 210.527 108.367V108.996C210.527 109.068 210.591 109.126 210.671 109.126H211.54C211.62 109.126 211.684 109.068 211.684 108.996V108.367C211.684 108.295 211.62 108.237 211.54 108.237Z" fill="#90A4AE"/>
<path d="M225.302 107.639V107.089L224.731 106.97C224.696 106.859 224.648 106.754 224.587 106.655L224.899 106.204L224.472 105.815L223.977 106.099C223.868 106.043 223.752 106 223.63 105.968L223.5 105.448H222.896L222.766 105.968C222.644 106 222.528 106.043 222.42 106.099L221.924 105.815L221.497 106.204L221.809 106.655C221.748 106.753 221.7 106.859 221.665 106.97L221.094 107.089V107.639L221.665 107.757C221.7 107.868 221.748 107.974 221.809 108.073L221.497 108.524L221.924 108.913L222.42 108.629C222.528 108.684 222.644 108.728 222.766 108.759L222.896 109.279H223.5L223.63 108.759C223.752 108.728 223.868 108.684 223.977 108.629L224.472 108.913L224.899 108.524L224.587 108.073C224.648 107.974 224.696 107.868 224.731 107.757L225.302 107.639Z" fill="#90A4AE"/>
<path d="M223.199 108.324C223.78 108.324 224.251 107.895 224.251 107.366C224.251 106.836 223.78 106.407 223.199 106.407C222.617 106.407 222.146 106.836 222.146 107.366C222.146 107.895 222.617 108.324 223.199 108.324Z" fill="#455A64"/>
<path d="M273.374 53.4767H235.861C235.545 53.4767 235.289 53.708 235.289 53.9934V74.7581C235.289 75.0435 235.545 75.2748 235.861 75.2748H273.374C273.69 75.2748 273.946 75.0435 273.946 74.7581V53.9934C273.946 53.708 273.69 53.4767 273.374 53.4767Z" fill="#FF7043"/>
<path fill-rule="evenodd" clip-rule="evenodd" d="M259.867 64.3742C259.867 65.6417 259.313 66.8573 258.329 67.7535C257.345 68.6498 256.009 69.1533 254.617 69.1533C253.225 69.1533 251.89 68.6498 250.905 67.7535C249.921 66.8573 249.368 65.6417 249.368 64.3742C249.368 63.1067 249.921 61.8911 250.905 60.9948C251.89 60.0986 253.225 59.595 254.617 59.595C256.009 59.595 257.345 60.0986 258.329 60.9948C259.313 61.8911 259.867 63.1067 259.867 64.3742Z" fill="white"/>
<path fill-rule="evenodd" clip-rule="evenodd" d="M259.179 64.3742C259.179 65.4756 258.698 66.5319 257.843 67.3107C256.987 68.0895 255.827 68.5271 254.617 68.5271C253.408 68.5271 252.247 68.0895 251.392 67.3107C250.536 66.5319 250.056 65.4756 250.056 64.3742C250.056 63.2728 250.536 62.2164 251.392 61.4376C252.247 60.6588 253.408 60.2213 254.617 60.2213C255.827 60.2213 256.987 60.6588 257.843 61.4376C258.698 62.2164 259.179 63.2728 259.179 64.3742Z" fill="#FF7043"/>
<path d="M261.831 116.835H236.43C236.216 116.835 236.043 116.992 236.043 117.185V131.246C236.043 131.44 236.216 131.596 236.43 131.596H261.831C262.046 131.596 262.219 131.44 262.219 131.246V117.185C262.219 116.992 262.046 116.835 261.831 116.835Z" fill="#29B6F6"/>
<path fill-rule="evenodd" clip-rule="evenodd" d="M252.687 124.216C252.687 124.641 252.595 125.062 252.416 125.454C252.237 125.847 251.975 126.204 251.645 126.504C251.315 126.805 250.923 127.043 250.492 127.206C250.061 127.368 249.599 127.452 249.132 127.452C248.665 127.452 248.203 127.368 247.772 127.206C247.34 127.043 246.948 126.805 246.618 126.504C246.288 126.204 246.026 125.847 245.848 125.454C245.669 125.062 245.577 124.641 245.577 124.216C245.577 123.357 245.952 122.534 246.618 121.927C247.285 121.32 248.189 120.98 249.132 120.98C250.075 120.98 250.979 121.32 251.645 121.927C252.312 122.534 252.687 123.357 252.687 124.216Z" fill="white"/>
<path fill-rule="evenodd" clip-rule="evenodd" d="M252.22 124.216C252.22 124.585 252.14 124.951 251.985 125.292C251.83 125.633 251.602 125.943 251.315 126.204C251.028 126.466 250.688 126.673 250.313 126.814C249.938 126.955 249.537 127.028 249.131 127.028C248.312 127.028 247.526 126.732 246.947 126.204C246.367 125.677 246.042 124.962 246.042 124.216C246.042 123.47 246.368 122.755 246.947 122.227C247.526 121.7 248.312 121.404 249.131 121.404C249.537 121.404 249.938 121.476 250.313 121.618C250.688 121.759 251.028 121.966 251.315 122.227C251.602 122.488 251.83 122.798 251.985 123.14C252.14 123.481 252.22 123.847 252.22 124.216Z" fill="#29B6F6"/>
<path d="M261.993 98.5784H236.592C236.378 98.5784 236.204 98.735 236.204 98.9282V112.989C236.204 113.183 236.378 113.339 236.592 113.339H261.993C262.207 113.339 262.381 113.183 262.381 112.989V98.9282C262.381 98.735 262.207 98.5784 261.993 98.5784Z" fill="#FFB300"/>
<path fill-rule="evenodd" clip-rule="evenodd" d="M252.848 105.959C252.848 106.817 252.474 107.64 251.807 108.247C251.14 108.854 250.236 109.195 249.294 109.195C248.827 109.195 248.365 109.111 247.933 108.949C247.502 108.786 247.11 108.548 246.78 108.247C246.45 107.947 246.188 107.59 246.009 107.197C245.831 106.805 245.739 106.384 245.739 105.959C245.739 105.534 245.831 105.113 246.009 104.72C246.188 104.328 246.45 103.971 246.78 103.67C247.11 103.37 247.502 103.132 247.933 102.969C248.365 102.806 248.827 102.723 249.294 102.723C250.236 102.723 251.14 103.064 251.807 103.67C252.474 104.277 252.848 105.101 252.848 105.959Z" fill="white"/>
<path fill-rule="evenodd" clip-rule="evenodd" d="M252.382 105.959C252.382 106.705 252.056 107.42 251.477 107.947C250.898 108.475 250.112 108.771 249.293 108.771C248.887 108.771 248.485 108.698 248.111 108.557C247.736 108.416 247.395 108.209 247.109 107.947C246.822 107.686 246.594 107.376 246.439 107.035C246.284 106.694 246.204 106.328 246.204 105.959C246.204 105.59 246.284 105.224 246.439 104.883C246.594 104.541 246.822 104.231 247.109 103.97C247.395 103.709 247.736 103.502 248.111 103.361C248.485 103.219 248.887 103.147 249.293 103.147C250.112 103.147 250.898 103.443 251.477 103.97C252.056 104.498 252.382 105.213 252.382 105.959Z" fill="#FFB300"/>
<path d="M262.1 79.6496H236.699C236.485 79.6496 236.311 79.8062 236.311 79.9994V94.0606C236.311 94.2538 236.485 94.4105 236.699 94.4105H262.1C262.314 94.4105 262.488 94.2538 262.488 94.0606V79.9994C262.488 79.8062 262.314 79.6496 262.1 79.6496Z" fill="#1DE9B6"/>
<path fill-rule="evenodd" clip-rule="evenodd" d="M252.955 87.03C252.955 87.8884 252.581 88.7115 251.914 89.3184C251.248 89.9253 250.343 90.2663 249.401 90.2663C248.458 90.2663 247.554 89.9253 246.887 89.3184C246.221 88.7115 245.846 87.8884 245.846 87.03C245.846 86.1717 246.221 85.3486 246.887 84.7417C247.554 84.1347 248.458 83.7938 249.401 83.7938C250.343 83.7938 251.248 84.1347 251.914 84.7417C252.581 85.3486 252.955 86.1717 252.955 87.03Z" fill="white"/>
<path fill-rule="evenodd" clip-rule="evenodd" d="M252.489 87.03C252.489 87.7759 252.163 88.4912 251.584 89.0186C251.005 89.546 250.219 89.8423 249.4 89.8423C248.581 89.8423 247.795 89.546 247.216 89.0186C246.636 88.4912 246.311 87.7759 246.311 87.03C246.311 86.2842 246.636 85.5689 247.216 85.0415C247.795 84.5141 248.581 84.2179 249.4 84.2179C250.219 84.2179 251.005 84.5141 251.584 85.0415C252.163 85.5689 252.489 86.2842 252.489 87.03Z" fill="#1DE9B6"/>
<path fill-rule="evenodd" clip-rule="evenodd" d="M184.902 79.639L171.97 86.4364V72.8414L184.902 79.639Z" fill="white"/>
<path fill-rule="evenodd" clip-rule="evenodd" d="M258.341 64.4296L253.264 67.098V61.7612L258.341 64.4296Z" fill="white"/>
<path fill-rule="evenodd" clip-rule="evenodd" d="M251.499 124.246L248.061 126.053V122.439L251.499 124.246Z" fill="white"/>
<path fill-rule="evenodd" clip-rule="evenodd" d="M251.528 106L248.091 107.807V104.193L251.528 106Z" fill="white"/>
<path fill-rule="evenodd" clip-rule="evenodd" d="M251.605 87.062L248.168 88.8689V85.255L251.605 87.062Z" fill="white"/>
<path fill-rule="evenodd" clip-rule="evenodd" d="M133.284 107.454L129.847 109.261V105.647L133.284 107.454Z" fill="#263238"/>
<path d="M187.479 135.281H131.627C131.142 135.281 130.75 135.636 130.75 136.073V137.417C130.75 137.854 131.142 138.208 131.627 138.208H187.479C187.964 138.208 188.356 137.854 188.356 137.417V136.073C188.356 135.636 187.964 135.281 187.479 135.281Z" fill="#90A4AE"/>
<path d="M221.584 139.911H131.627C131.142 139.911 130.75 140.265 130.75 140.702V142.046C130.75 142.483 131.142 142.838 131.627 142.838H221.584C222.068 142.838 222.461 142.483 222.461 142.046V140.702C222.461 140.265 222.068 139.911 221.584 139.911Z" fill="#90A4AE"/>
<path d="M261.993 134.903H236.592C236.378 134.903 236.204 135.06 236.204 135.253V149.314C236.204 149.508 236.378 149.664 236.592 149.664H261.993C262.207 149.664 262.381 149.508 262.381 149.314V135.253C262.381 135.06 262.207 134.903 261.993 134.903Z" fill="#EC407A"/>
<path fill-rule="evenodd" clip-rule="evenodd" d="M252.382 142.284C252.382 143.03 252.056 143.745 251.477 144.272C250.898 144.8 250.112 145.096 249.293 145.096C248.887 145.096 248.485 145.023 248.111 144.882C247.736 144.741 247.395 144.534 247.109 144.272C246.822 144.011 246.594 143.701 246.439 143.36C246.284 143.019 246.204 142.653 246.204 142.284C246.204 141.914 246.284 141.549 246.439 141.208C246.594 140.866 246.822 140.556 247.109 140.295C247.395 140.034 247.736 139.827 248.111 139.686C248.485 139.544 248.887 139.472 249.293 139.472C250.112 139.472 250.898 139.768 251.477 140.295C252.056 140.823 252.382 141.538 252.382 142.284Z" fill="#FFB300"/>
<path fill-rule="evenodd" clip-rule="evenodd" d="M251.528 142.323L248.091 144.13V140.516L251.528 142.323Z" fill="white"/>
<path d="M261.993 152.929H236.592C236.378 152.929 236.204 153.086 236.204 153.279V167.34C236.204 167.534 236.378 167.69 236.592 167.69H261.993C262.207 167.69 262.381 167.534 262.381 167.34V153.279C262.381 153.086 262.207 152.929 261.993 152.929Z" fill="#4CAF50"/>
<path fill-rule="evenodd" clip-rule="evenodd" d="M252.382 160.31C252.382 161.056 252.056 161.771 251.477 162.298C250.898 162.826 250.112 163.122 249.293 163.122C248.887 163.122 248.485 163.049 248.111 162.908C247.736 162.767 247.395 162.559 247.109 162.298C246.822 162.037 246.594 161.727 246.439 161.386C246.284 161.045 246.204 160.679 246.204 160.31C246.204 159.94 246.284 159.575 246.439 159.233C246.594 158.892 246.822 158.582 247.109 158.321C247.395 158.06 247.736 157.853 248.111 157.712C248.485 157.57 248.887 157.498 249.293 157.498C250.112 157.498 250.898 157.794 251.477 158.321C252.056 158.849 252.382 159.564 252.382 160.31Z" fill="#FFB300"/>
<path fill-rule="evenodd" clip-rule="evenodd" d="M251.528 160.35L248.091 162.157V158.543L251.528 160.35Z" fill="white"/>
<path d="M249.462 145.187C251.319 145.187 252.824 143.817 252.824 142.126C252.824 140.436 251.319 139.066 249.462 139.066C247.606 139.066 246.101 140.436 246.101 142.126C246.101 143.817 247.606 145.187 249.462 145.187Z" fill="white"/>
<path d="M249.462 144.786C251.076 144.786 252.384 143.595 252.384 142.126C252.384 140.657 251.076 139.467 249.462 139.467C247.849 139.467 246.541 140.657 246.541 142.126C246.541 143.595 247.849 144.786 249.462 144.786Z" fill="#EC407A"/>
<path fill-rule="evenodd" clip-rule="evenodd" d="M251.593 142.119L248.484 143.753V140.484L251.593 142.119Z" fill="white"/>
<path d="M249.462 163.465C251.319 163.465 252.824 162.095 252.824 160.404C252.824 158.714 251.319 157.343 249.462 157.343C247.606 157.343 246.101 158.714 246.101 160.404C246.101 162.095 247.606 163.465 249.462 163.465Z" fill="white"/>
<path d="M249.462 163.064C251.076 163.064 252.384 161.873 252.384 160.404C252.384 158.935 251.076 157.745 249.462 157.745C247.849 157.745 246.541 158.935 246.541 160.404C246.541 161.873 247.849 163.064 249.462 163.064Z" fill="#4CAF50"/>
<path fill-rule="evenodd" clip-rule="evenodd" d="M251.593 160.397L248.484 162.031V158.762L251.593 160.397Z" fill="white"/>
<path d="M221.584 144.677H131.627C131.142 144.677 130.75 145.032 130.75 145.469V146.813C130.75 147.25 131.142 147.604 131.627 147.604H221.584C222.068 147.604 222.461 147.25 222.461 146.813V145.469C222.461 145.032 222.068 144.677 221.584 144.677Z" fill="#90A4AE"/>
<path d="M162.23 149.979H131.627C131.142 149.979 130.75 150.333 130.75 150.77V152.114C130.75 152.551 131.142 152.906 131.627 152.906H162.23C162.714 152.906 163.107 152.551 163.107 152.114V150.77C163.107 150.333 162.714 149.979 162.23 149.979Z" fill="#90A4AE"/>
<path d="M140.419 115.513H130.126C129.641 115.513 129.249 115.867 129.249 116.304V125.591C129.249 126.028 129.641 126.383 130.126 126.383H140.419C140.903 126.383 141.296 126.028 141.296 125.591V116.304C141.296 115.867 140.903 115.513 140.419 115.513Z" fill="#EC407A"/>
<path d="M185.669 117.633H146.874C146.39 117.633 145.997 117.987 145.997 118.424V120.024C145.997 120.461 146.39 120.815 146.874 120.815H185.669C186.153 120.815 186.546 120.461 186.546 120.024V118.424C186.546 117.987 186.153 117.633 185.669 117.633Z" fill="#EC407A"/>
<path d="M176.409 122.137H146.438C146.195 122.137 145.997 122.315 145.997 122.535C145.997 122.754 146.195 122.932 146.438 122.932H176.409C176.653 122.932 176.85 122.754 176.85 122.535C176.85 122.315 176.653 122.137 176.409 122.137Z" fill="#FF7043"/>
</g>
<defs>
<filter id="filter0_f_5_73" x="68.9891" y="1.06335" width="259.03" height="202.403" filterUnits="userSpaceOnUse" color-interpolation-filters="sRGB">
<feFlood flood-opacity="0" result="BackgroundImageFix"/>
<feBlend mode="normal" in="SourceGraphic" in2="BackgroundImageFix" result="shape"/>
<feGaussianBlur stdDeviation="20.9675" result="effect1_foregroundBlur_5_73"/>
</filter>
<clipPath id="clip0_5_73">
<rect width="397" height="275" rx="30" fill="white"/>
</clipPath>
</defs>
</svg>
